<svg xmlns="http://www.w3.org/2000/svg" viewBox="0 0 912 1070" width="912" height="1070" style="font-family: ui-monospace, monospace; font-size: 12px;"><defs><marker id="arrow" viewBox="0 0 10 10" refX="10" refY="5" markerWidth="8" markerHeight="8" orient="auto-start-reverse"><path d="M 0 0 L 10 5 L 0 10 z" fill="rgba(154,124,255,0.6)"></path></marker></defs><path d="M 656 59 C 616 59, 616 59, 576 59" fill="none" stroke="rgba(154,124,255,0.4)" stroke-width="1.5" marker-end="url(#arrow)"></path><path d="M 256 477 C 296 477, 296 59, 336 59" fill="none" stroke="rgba(154,124,255,0.4)" stroke-width="1.5" marker-end="url(#arrow)"></path><path d="M 656 477 C 616 477, 616 59, 576 59" fill="none" stroke="rgba(154,124,255,0.4)" stroke-width="1.5" marker-end="url(#arrow)"></path><path d="M 256 763 C 296 763, 296 59, 336 59" fill="none" stroke="rgba(154,124,255,0.4)" stroke-width="1.5" marker-end="url(#arrow)"></path><path d="M 336 741 C 296 741, 296 741, 256 741" fill="none" stroke="rgba(154,124,255,0.4)" stroke-width="1.5" marker-end="url(#arrow)"></path><path d="M 336 763 C 296 763, 296 59, 256 59" fill="none" stroke="rgba(154,124,255,0.4)" stroke-width="1.5" marker-end="url(#arrow)"></path><rect x="16" y="16" width="240" height="356" rx="8" fill="rgba(22,22,22,1)" stroke="rgba(255,255,255,0.1)" stroke-width="1"></rect><rect x="16" y="16" width="240" height="32" rx="8" fill="rgba(154,124,255,0.12)"></rect><rect x="16" y="44" width="240" height="4" fill="rgba(154,124,255,0.12)"></rect><text x="28" y="37" fill="rgba(255,255,255,1)" font-weight="600" font-size="13">Product</text><text x="28" y="63" fill="rgba(255,255,255,0.85)">id</text><rect x="48.4" y="53" width="22" height="14" rx="3" fill="rgba(79,188,252,0.7)" opacity="0.2"></rect><text x="59.4" y="62" fill="rgba(79,188,252,0.7)" font-size="9" font-weight="600" text-anchor="middle">PK</text><text x="244" y="63" fill="rgba(255,255,255,0.4)" text-anchor="end" font-size="11">String</text><text x="28" y="85" fill="rgba(255,255,255,0.85)">name</text><text x="244" y="85" fill="rgba(255,255,255,0.4)" text-anchor="end" font-size="11">String</text><text x="28" y="107" fill="rgba(255,255,255,0.85)">slug</text><text x="244" y="107" fill="rgba(255,255,255,0.4)" text-anchor="end" font-size="11">String</text><text x="28" y="129" fill="rgba(255,255,255,0.85)">category</text><text x="244" y="129" fill="rgba(255,255,255,0.4)" text-anchor="end" font-size="11">String</text><text x="28" y="151" fill="rgba(255,255,255,0.85)">images</text><text x="244" y="151" fill="rgba(255,255,255,0.4)" text-anchor="end" font-size="11">String[]</text><text x="28" y="173" fill="rgba(255,255,255,0.85)">brand</text><text x="244" y="173" fill="rgba(255,255,255,0.4)" text-anchor="end" font-size="11">String</text><text x="28" y="195" fill="rgba(255,255,255,0.85)">description</text><text x="244" y="195" fill="rgba(255,255,255,0.4)" text-anchor="end" font-size="11">String</text><text x="28" y="217" fill="rgba(255,255,255,0.85)">stock</text><text x="244" y="217" fill="rgba(255,255,255,0.4)" text-anchor="end" font-size="11">Int</text><text x="28" y="239" fill="rgba(255,255,255,0.85)">price</text><text x="244" y="239" fill="rgba(255,255,255,0.4)" text-anchor="end" font-size="11">Decimal</text><text x="28" y="261" fill="rgba(255,255,255,0.85)">rating</text><text x="244" y="261" fill="rgba(255,255,255,0.4)" text-anchor="end" font-size="11">Decimal</text><text x="28" y="283" fill="rgba(255,255,255,0.85)">numReviews</text><text x="244" y="283" fill="rgba(255,255,255,0.4)" text-anchor="end" font-size="11">Int</text><text x="28" y="305" fill="rgba(255,255,255,0.85)">isFeatured</text><text x="244" y="305" fill="rgba(255,255,255,0.4)" text-anchor="end" font-size="11">Boolean</text><text x="28" y="327" fill="rgba(255,255,255,0.85)">banner</text><text x="244" y="327" fill="rgba(255,255,255,0.4)" text-anchor="end" font-size="11">String?</text><text x="28" y="349" fill="rgba(255,255,255,0.85)">createdAt</text><text x="244" y="349" fill="rgba(255,255,255,0.4)" text-anchor="end" font-size="11">DateTime</text><rect x="336" y="16" width="240" height="290" rx="8" fill="rgba(22,22,22,1)" stroke="rgba(255,255,255,0.1)" stroke-width="1"></rect><rect x="336" y="16" width="240" height="32" rx="8" fill="rgba(154,124,255,0.12)"></rect><rect x="336" y="44" width="240" height="4" fill="rgba(154,124,255,0.12)"></rect><text x="348" y="37" fill="rgba(255,255,255,1)" font-weight="600" font-size="13">User</text><text x="348" y="63" fill="rgba(255,255,255,0.85)">id</text><rect x="368.4" y="53" width="22" height="14" rx="3" fill="rgba(79,188,252,0.7)" opacity="0.2"></rect><text x="379.4" y="62" fill="rgba(79,188,252,0.7)" font-size="9" font-weight="600" text-anchor="middle">PK</text><text x="564" y="63" fill="rgba(255,255,255,0.4)" text-anchor="end" font-size="11">String</text><text x="348" y="85" fill="rgba(255,255,255,0.85)">name</text><text x="564" y="85" fill="rgba(255,255,255,0.4)" text-anchor="end" font-size="11">String</text><text x="348" y="107" fill="rgba(255,255,255,0.85)">email</text><text x="564" y="107" fill="rgba(255,255,255,0.4)" text-anchor="end" font-size="11">String</text><text x="348" y="129" fill="rgba(255,255,255,0.85)">emailVerified</text><text x="564" y="129" fill="rgba(255,255,255,0.4)" text-anchor="end" font-size="11">DateTime?</text><text x="348" y="151" fill="rgba(255,255,255,0.85)">image</text><text x="564" y="151" fill="rgba(255,255,255,0.4)" text-anchor="end" font-size="11">String?</text><text x="348" y="173" fill="rgba(255,255,255,0.85)">password</text><text x="564" y="173" fill="rgba(255,255,255,0.4)" text-anchor="end" font-size="11">String?</text><text x="348" y="195" fill="rgba(255,255,255,0.85)">role</text><text x="564" y="195" fill="rgba(255,255,255,0.4)" text-anchor="end" font-size="11">String</text><text x="348" y="217" fill="rgba(255,255,255,0.85)">address</text><text x="564" y="217" fill="rgba(255,255,255,0.4)" text-anchor="end" font-size="11">Json?</text><text x="348" y="239" fill="rgba(255,255,255,0.85)">paymentMethod</text><text x="564" y="239" fill="rgba(255,255,255,0.4)" text-anchor="end" font-size="11">String?</text><text x="348" y="261" fill="rgba(255,255,255,0.85)">createdAt</text><text x="564" y="261" fill="rgba(255,255,255,0.4)" text-anchor="end" font-size="11">DateTime</text><text x="348" y="283" fill="rgba(255,255,255,0.85)">updatedAt</text><text x="564" y="283" fill="rgba(255,255,255,0.4)" text-anchor="end" font-size="11">DateTime</text><rect x="656" y="16" width="240" height="334" rx="8" fill="rgba(22,22,22,1)" stroke="rgba(255,255,255,0.1)" stroke-width="1"></rect><rect x="656" y="16" width="240" height="32" rx="8" fill="rgba(154,124,255,0.12)"></rect><rect x="656" y="44" width="240" height="4" fill="rgba(154,124,255,0.12)"></rect><text x="668" y="37" fill="rgba(255,255,255,1)" font-weight="600" font-size="13">Account</text><text x="668" y="63" fill="rgba(154,124,255,0.9)">userId</text><rect x="717.2" y="53" width="22" height="14" rx="3" fill="rgba(154,124,255,0.7)" opacity="0.2"></rect><text x="728.2" y="62" fill="rgba(154,124,255,0.7)" font-size="9" font-weight="600" text-anchor="middle">FK</text><text x="884" y="63" fill="rgba(255,255,255,0.4)" text-anchor="end" font-size="11">String</text><text x="668" y="85" fill="rgba(255,255,255,0.85)">type</text><text x="884" y="85" fill="rgba(255,255,255,0.4)" text-anchor="end" font-size="11">String</text><text x="668" y="107" fill="rgba(255,255,255,0.85)">provider</text><rect x="731.6" y="97" width="22" height="14" rx="3" fill="rgba(79,188,252,0.7)" opacity="0.2"></rect><text x="742.6" y="106" fill="rgba(79,188,252,0.7)" font-size="9" font-weight="600" text-anchor="middle">PK</text><text x="884" y="107" fill="rgba(255,255,255,0.4)" text-anchor="end" font-size="11">String</text><text x="668" y="129" fill="rgba(255,255,255,0.85)">providerAccountId</text><rect x="796.4" y="119" width="22" height="14" rx="3" fill="rgba(79,188,252,0.7)" opacity="0.2"></rect><text x="807.4" y="128" fill="rgba(79,188,252,0.7)" font-size="9" font-weight="600" text-anchor="middle">PK</text><text x="884" y="129" fill="rgba(255,255,255,0.4)" text-anchor="end" font-size="11">String</text><text x="668" y="151" fill="rgba(255,255,255,0.85)">refresh_token</text><text x="884" y="151" fill="rgba(255,255,255,0.4)" text-anchor="end" font-size="11">String?</text><text x="668" y="173" fill="rgba(255,255,255,0.85)">access_token</text><text x="884" y="173" fill="rgba(255,255,255,0.4)" text-anchor="end" font-size="11">String?</text><text x="668" y="195" fill="rgba(255,255,255,0.85)">expires_at</text><text x="884" y="195" fill="rgba(255,255,255,0.4)" text-anchor="end" font-size="11">Int?</text><text x="668" y="217" fill="rgba(255,255,255,0.85)">token_type</text><text x="884" y="217" fill="rgba(255,255,255,0.4)" text-anchor="end" font-size="11">String?</text><text x="668" y="239" fill="rgba(255,255,255,0.85)">scope</text><text x="884" y="239" fill="rgba(255,255,255,0.4)" text-anchor="end" font-size="11">String?</text><text x="668" y="261" fill="rgba(255,255,255,0.85)">id_token</text><text x="884" y="261" fill="rgba(255,255,255,0.4)" text-anchor="end" font-size="11">String?</text><text x="668" y="283" fill="rgba(255,255,255,0.85)">session_state</text><text x="884" y="283" fill="rgba(255,255,255,0.4)" text-anchor="end" font-size="11">String?</text><text x="668" y="305" fill="rgba(255,255,255,0.85)">createdAt</text><text x="884" y="305" fill="rgba(255,255,255,0.4)" text-anchor="end" font-size="11">DateTime</text><text x="668" y="327" fill="rgba(255,255,255,0.85)">updatedAt</text><text x="884" y="327" fill="rgba(255,255,255,0.4)" text-anchor="end" font-size="11">DateTime</text><rect x="16" y="412" width="240" height="158" rx="8" fill="rgba(22,22,22,1)" stroke="rgba(255,255,255,0.1)" stroke-width="1"></rect><rect x="16" y="412" width="240" height="32" rx="8" fill="rgba(154,124,255,0.12)"></rect><rect x="16" y="440" width="240" height="4" fill="rgba(154,124,255,0.12)"></rect><text x="28" y="433" fill="rgba(255,255,255,1)" font-weight="600" font-size="13">Session</text><text x="28" y="459" fill="rgba(255,255,255,0.85)">sessionToken</text><rect x="120.4" y="449" width="22" height="14" rx="3" fill="rgba(79,188,252,0.7)" opacity="0.2"></rect><text x="131.4" y="458" fill="rgba(79,188,252,0.7)" font-size="9" font-weight="600" text-anchor="middle">PK</text><text x="244" y="459" fill="rgba(255,255,255,0.4)" text-anchor="end" font-size="11">String</text><text x="28" y="481" fill="rgba(154,124,255,0.9)">userId</text><rect x="77.2" y="471" width="22" height="14" rx="3" fill="rgba(154,124,255,0.7)" opacity="0.2"></rect><text x="88.2" y="480" fill="rgba(154,124,255,0.7)" font-size="9" font-weight="600" text-anchor="middle">FK</text><text x="244" y="481" fill="rgba(255,255,255,0.4)" text-anchor="end" font-size="11">String</text><text x="28" y="503" fill="rgba(255,255,255,0.85)">expires</text><text x="244" y="503" fill="rgba(255,255,255,0.4)" text-anchor="end" font-size="11">DateTime</text><text x="28" y="525" fill="rgba(255,255,255,0.85)">createdAt</text><text x="244" y="525" fill="rgba(255,255,255,0.4)" text-anchor="end" font-size="11">DateTime</text><text x="28" y="547" fill="rgba(255,255,255,0.85)">updatedAt</text><text x="244" y="547" fill="rgba(255,255,255,0.4)" text-anchor="end" font-size="11">DateTime</text><rect x="336" y="412" width="240" height="114" rx="8" fill="rgba(22,22,22,1)" stroke="rgba(255,255,255,0.1)" stroke-width="1"></rect><rect x="336" y="412" width="240" height="32" rx="8" fill="rgba(154,124,255,0.12)"></rect><rect x="336" y="440" width="240" height="4" fill="rgba(154,124,255,0.12)"></rect><text x="348" y="433" fill="rgba(255,255,255,1)" font-weight="600" font-size="13">VerificationToken</text><text x="348" y="459" fill="rgba(255,255,255,0.85)">identifier</text><rect x="426" y="449" width="22" height="14" rx="3" fill="rgba(79,188,252,0.7)" opacity="0.2"></rect><text x="437" y="458" fill="rgba(79,188,252,0.7)" font-size="9" font-weight="600" text-anchor="middle">PK</text><text x="564" y="459" fill="rgba(255,255,255,0.4)" text-anchor="end" font-size="11">String</text><text x="348" y="481" fill="rgba(255,255,255,0.85)">token</text><rect x="390" y="471" width="22" height="14" rx="3" fill="rgba(79,188,252,0.7)" opacity="0.2"></rect><text x="401" y="480" fill="rgba(79,188,252,0.7)" font-size="9" font-weight="600" text-anchor="middle">PK</text><text x="564" y="481" fill="rgba(255,255,255,0.4)" text-anchor="end" font-size="11">String</text><text x="348" y="503" fill="rgba(255,255,255,0.85)">expires</text><text x="564" y="503" fill="rgba(255,255,255,0.4)" text-anchor="end" font-size="11">DateTime</text><rect x="656" y="412" width="240" height="246" rx="8" fill="rgba(22,22,22,1)" stroke="rgba(255,255,255,0.1)" stroke-width="1"></rect><rect x="656" y="412" width="240" height="32" rx="8" fill="rgba(154,124,255,0.12)"></rect><rect x="656" y="440" width="240" height="4" fill="rgba(154,124,255,0.12)"></rect><text x="668" y="433" fill="rgba(255,255,255,1)" font-weight="600" font-size="13">Cart</text><text x="668" y="459" fill="rgba(255,255,255,0.85)">id</text><rect x="688.4" y="449" width="22" height="14" rx="3" fill="rgba(79,188,252,0.7)" opacity="0.2"></rect><text x="699.4" y="458" fill="rgba(79,188,252,0.7)" font-size="9" font-weight="600" text-anchor="middle">PK</text><text x="884" y="459" fill="rgba(255,255,255,0.4)" text-anchor="end" font-size="11">String</text><text x="668" y="481" fill="rgba(154,124,255,0.9)">userId</text><rect x="717.2" y="471" width="22" height="14" rx="3" fill="rgba(154,124,255,0.7)" opacity="0.2"></rect><text x="728.2" y="480" fill="rgba(154,124,255,0.7)" font-size="9" font-weight="600" text-anchor="middle">FK</text><text x="884" y="481" fill="rgba(255,255,255,0.4)" text-anchor="end" font-size="11">String?</text><text x="668" y="503" fill="rgba(255,255,255,0.85)">sessionCartId</text><text x="884" y="503" fill="rgba(255,255,255,0.4)" text-anchor="end" font-size="11">String</text><text x="668" y="525" fill="rgba(255,255,255,0.85)">items</text><text x="884" y="525" fill="rgba(255,255,255,0.4)" text-anchor="end" font-size="11">Json[]</text><text x="668" y="547" fill="rgba(255,255,255,0.85)">itemsPrice</text><text x="884" y="547" fill="rgba(255,255,255,0.4)" text-anchor="end" font-size="11">Decimal</text><text x="668" y="569" fill="rgba(255,255,255,0.85)">totalPrice</text><text x="884" y="569" fill="rgba(255,255,255,0.4)" text-anchor="end" font-size="11">Decimal</text><text x="668" y="591" fill="rgba(255,255,255,0.85)">shippingPrice</text><text x="884" y="591" fill="rgba(255,255,255,0.4)" text-anchor="end" font-size="11">Decimal</text><text x="668" y="613" fill="rgba(255,255,255,0.85)">taxPrice</text><text x="884" y="613" fill="rgba(255,255,255,0.4)" text-anchor="end" font-size="11">Decimal</text><text x="668" y="635" fill="rgba(255,255,255,0.85)">createdAt</text><text x="884" y="635" fill="rgba(255,255,255,0.4)" text-anchor="end" font-size="11">DateTime</text><rect x="16" y="698" width="240" height="356" rx="8" fill="rgba(22,22,22,1)" stroke="rgba(255,255,255,0.1)" stroke-width="1"></rect><rect x="16" y="698" width="240" height="32" rx="8" fill="rgba(154,124,255,0.12)"></rect><rect x="16" y="726" width="240" height="4" fill="rgba(154,124,255,0.12)"></rect><text x="28" y="719" fill="rgba(255,255,255,1)" font-weight="600" font-size="13">Order</text><text x="28" y="745" fill="rgba(255,255,255,0.85)">id</text><rect x="48.4" y="735" width="22" height="14" rx="3" fill="rgba(79,188,252,0.7)" opacity="0.2"></rect><text x="59.4" y="744" fill="rgba(79,188,252,0.7)" font-size="9" font-weight="600" text-anchor="middle">PK</text><text x="244" y="745" fill="rgba(255,255,255,0.4)" text-anchor="end" font-size="11">String</text><text x="28" y="767" fill="rgba(154,124,255,0.9)">userId</text><rect x="77.2" y="757" width="22" height="14" rx="3" fill="rgba(154,124,255,0.7)" opacity="0.2"></rect><text x="88.2" y="766" fill="rgba(154,124,255,0.7)" font-size="9" font-weight="600" text-anchor="middle">FK</text><text x="244" y="767" fill="rgba(255,255,255,0.4)" text-anchor="end" font-size="11">String</text><text x="28" y="789" fill="rgba(255,255,255,0.85)">shippingAddress</text><text x="244" y="789" fill="rgba(255,255,255,0.4)" text-anchor="end" font-size="11">Json</text><text x="28" y="811" fill="rgba(255,255,255,0.85)">paymentMethod</text><text x="244" y="811" fill="rgba(255,255,255,0.4)" text-anchor="end" font-size="11">String</text><text x="28" y="833" fill="rgba(255,255,255,0.85)">paymentResult</text><text x="244" y="833" fill="rgba(255,255,255,0.4)" text-anchor="end" font-size="11">Json?</text><text x="28" y="855" fill="rgba(255,255,255,0.85)">itemsPrice</text><text x="244" y="855" fill="rgba(255,255,255,0.4)" text-anchor="end" font-size="11">Decimal</text><text x="28" y="877" fill="rgba(255,255,255,0.85)">shippingPrice</text><text x="244" y="877" fill="rgba(255,255,255,0.4)" text-anchor="end" font-size="11">Decimal</text><text x="28" y="899" fill="rgba(255,255,255,0.85)">taxPrice</text><text x="244" y="899" fill="rgba(255,255,255,0.4)" text-anchor="end" font-size="11">Decimal</text><text x="28" y="921" fill="rgba(255,255,255,0.85)">totalPrice</text><text x="244" y="921" fill="rgba(255,255,255,0.4)" text-anchor="end" font-size="11">Decimal</text><text x="28" y="943" fill="rgba(255,255,255,0.85)">isPaid</text><text x="244" y="943" fill="rgba(255,255,255,0.4)" text-anchor="end" font-size="11">Boolean</text><text x="28" y="965" fill="rgba(255,255,255,0.85)">isDelivered</text><text x="244" y="965" fill="rgba(255,255,255,0.4)" text-anchor="end" font-size="11">Boolean</text><text x="28" y="987" fill="rgba(255,255,255,0.85)">paidAt</text><text x="244" y="987" fill="rgba(255,255,255,0.4)" text-anchor="end" font-size="11">DateTime?</text><text x="28" y="1009" fill="rgba(255,255,255,0.85)">deliveredAt</text><text x="244" y="1009" fill="rgba(255,255,255,0.4)" text-anchor="end" font-size="11">DateTime?</text><text x="28" y="1031" fill="rgba(255,255,255,0.85)">createdAt</text><text x="244" y="1031" fill="rgba(255,255,255,0.4)" text-anchor="end" font-size="11">DateTime</text><rect x="336" y="698" width="240" height="202" rx="8" fill="rgba(22,22,22,1)" stroke="rgba(255,255,255,0.1)" stroke-width="1"></rect><rect x="336" y="698" width="240" height="32" rx="8" fill="rgba(154,124,255,0.12)"></rect><rect x="336" y="726" width="240" height="4" fill="rgba(154,124,255,0.12)"></rect><text x="348" y="719" fill="rgba(255,255,255,1)" font-weight="600" font-size="13">OrderItem</text><text x="348" y="745" fill="rgba(154,124,255,0.9)">orderId</text><rect x="404.4" y="735" width="22" height="14" rx="3" fill="rgba(154,124,255,0.7)" opacity="0.2"></rect><text x="415.4" y="744" fill="rgba(154,124,255,0.7)" font-size="9" font-weight="600" text-anchor="middle">FK</text><text x="564" y="745" fill="rgba(255,255,255,0.4)" text-anchor="end" font-size="11">String</text><text x="348" y="767" fill="rgba(154,124,255,0.9)">productId</text><rect x="418.8" y="757" width="22" height="14" rx="3" fill="rgba(154,124,255,0.7)" opacity="0.2"></rect><text x="429.8" y="766" fill="rgba(154,124,255,0.7)" font-size="9" font-weight="600" text-anchor="middle">FK</text><text x="564" y="767" fill="rgba(255,255,255,0.4)" text-anchor="end" font-size="11">String</text><text x="348" y="789" fill="rgba(255,255,255,0.85)">qty</text><text x="564" y="789" fill="rgba(255,255,255,0.4)" text-anchor="end" font-size="11">Int</text><text x="348" y="811" fill="rgba(255,255,255,0.85)">price</text><text x="564" y="811" fill="rgba(255,255,255,0.4)" text-anchor="end" font-size="11">Decimal</text><text x="348" y="833" fill="rgba(255,255,255,0.85)">name</text><text x="564" y="833" fill="rgba(255,255,255,0.4)" text-anchor="end" font-size="11">String</text><text x="348" y="855" fill="rgba(255,255,255,0.85)">slug</text><text x="564" y="855" fill="rgba(255,255,255,0.4)" text-anchor="end" font-size="11">String</text><text x="348" y="877" fill="rgba(255,255,255,0.85)">image</text><text x="564" y="877" fill="rgba(255,255,255,0.4)" text-anchor="end" font-size="11">String</text></svg>